<svg width="676" height="173" viewBox="0 0 676 173" fill="none" xmlns="http://www.w3.org/2000/svg">
<path d="M0 123.93L20.2513 71.7437H67.7638L54.5226 100.563H87.2362L24.9246 173L42.0603 123.93H0Z" fill="#F8A830"/>
<circle cx="43.2287" cy="40.9774" r="22.9774" fill="#F8A830"/>
<path d="M81.12 90C80.48 90 79.904 89.776 79.392 89.328C78.944 88.816 78.72 88.24 78.72 87.6V25.2C78.72 24.496 78.944 23.92 79.392 23.472C79.904 23.024 80.48 22.8 81.12 22.8H91.296C92.896 22.8 93.984 23.408 94.56 24.624L117.984 61.488V25.2C117.984 24.496 118.208 23.92 118.656 23.472C119.168 23.024 119.744 22.8 120.384 22.8H131.904C132.608 22.8 133.184 23.024 133.632 23.472C134.08 23.92 134.304 24.496 134.304 25.2V87.504C134.304 88.208 134.08 88.816 133.632 89.328C133.184 89.776 132.608 90 131.904 90H121.632C120.224 90 119.168 89.392 118.464 88.176L95.04 52.656V87.6C95.04 88.24 94.816 88.816 94.368 89.328C93.92 89.776 93.344 90 92.64 90H81.12ZM172.776 90.96C166.696 90.96 161.48 90.064 157.128 88.272C152.776 86.48 149.48 84.144 147.24 81.264C145.064 78.32 143.912 75.12 143.784 71.664C143.784 71.152 143.976 70.704 144.36 70.32C144.808 69.872 145.32 69.648 145.896 69.648H157.992C158.76 69.648 159.368 69.808 159.816 70.128C160.328 70.384 160.84 70.8 161.352 71.376C162.184 73.04 163.528 74.416 165.384 75.504C167.24 76.592 169.704 77.136 172.776 77.136C176.424 77.136 179.208 76.56 181.128 75.408C183.048 74.256 184.008 72.688 184.008 70.704C184.008 69.296 183.496 68.144 182.472 67.248C181.512 66.352 179.976 65.552 177.864 64.848C175.752 64.144 172.616 63.344 168.456 62.448C160.776 60.848 155.016 58.512 151.176 55.44C147.4 52.304 145.512 47.856 145.512 42.096C145.512 38.192 146.6 34.704 148.776 31.632C150.952 28.56 154.056 26.16 158.088 24.432C162.12 22.704 166.824 21.84 172.2 21.84C177.768 21.84 182.6 22.8 186.696 24.72C190.792 26.64 193.896 29.072 196.008 32.016C198.184 34.896 199.336 37.744 199.464 40.56C199.464 41.136 199.272 41.616 198.888 42C198.504 42.384 198.024 42.576 197.448 42.576H184.776C184.008 42.576 183.368 42.448 182.856 42.192C182.408 41.936 181.992 41.52 181.608 40.944C181.224 39.472 180.168 38.224 178.44 37.2C176.776 36.176 174.696 35.664 172.2 35.664C169.32 35.664 167.112 36.176 165.576 37.2C164.04 38.224 163.272 39.728 163.272 41.712C163.272 43.056 163.688 44.176 164.52 45.072C165.416 45.968 166.824 46.8 168.744 47.568C170.728 48.272 173.544 49.008 177.192 49.776C183.144 50.864 187.88 52.24 191.4 53.904C194.984 55.504 197.608 57.616 199.272 60.24C200.936 62.8 201.768 66.032 201.768 69.936C201.768 74.224 200.52 77.968 198.024 81.168C195.592 84.304 192.168 86.736 187.752 88.464C183.4 90.128 178.408 90.96 172.776 90.96ZM227.904 90C227.264 90 226.688 89.776 226.176 89.328C225.728 88.816 225.504 88.24 225.504 87.6V37.872H208.416C207.776 37.872 207.2 37.648 206.688 37.2C206.24 36.688 206.016 36.112 206.016 35.472V25.2C206.016 24.496 206.24 23.92 206.688 23.472C207.2 23.024 207.776 22.8 208.416 22.8H260.064C260.768 22.8 261.344 23.024 261.792 23.472C262.24 23.92 262.464 24.496 262.464 25.2V35.472C262.464 36.176 262.24 36.752 261.792 37.2C261.344 37.648 260.768 37.872 260.064 37.872H242.976V87.6C242.976 88.24 242.752 88.816 242.304 89.328C241.856 89.776 241.28 90 240.576 90H227.904ZM260.505 90C259.993 90 259.513 89.808 259.065 89.424C258.681 88.976 258.489 88.496 258.489 87.984C258.489 87.6 258.521 87.312 258.585 87.12L281.145 25.488C281.337 24.72 281.753 24.08 282.393 23.568C283.033 23.056 283.865 22.8 284.889 22.8H299.097C300.121 22.8 300.953 23.056 301.593 23.568C302.233 24.08 302.649 24.72 302.841 25.488L325.305 87.12L325.497 87.984C325.497 88.496 325.273 88.976 324.825 89.424C324.441 89.808 323.961 90 323.385 90H311.577C310.041 90 309.017 89.328 308.505 87.984L304.761 78.192H279.129L275.481 87.984C274.969 89.328 273.913 90 272.313 90H260.505ZM300.921 64.368L291.993 39.024L283.065 64.368H300.921ZM335.464 90C334.76 90 334.184 89.776 333.736 89.328C333.288 88.88 333.064 88.304 333.064 87.6V25.2C333.064 24.496 333.288 23.92 333.736 23.472C334.248 23.024 334.824 22.8 335.464 22.8H347.848C348.552 22.8 349.128 23.024 349.576 23.472C350.088 23.92 350.344 24.496 350.344 25.2V48.336H373.96V25.2C373.96 24.496 374.184 23.92 374.632 23.472C375.08 23.024 375.656 22.8 376.36 22.8H388.744C389.448 22.8 390.024 23.024 390.472 23.472C390.92 23.92 391.144 24.496 391.144 25.2V87.6C391.144 88.304 390.92 88.88 390.472 89.328C390.024 89.776 389.448 90 388.744 90H376.36C375.656 90 375.08 89.776 374.632 89.328C374.184 88.88 373.96 88.304 373.96 87.6V63.696H350.344V87.6C350.344 88.304 350.088 88.88 349.576 89.328C349.128 89.776 348.552 90 347.848 90H335.464ZM406.995 90C406.355 90 405.779 89.776 405.267 89.328C404.819 88.816 404.595 88.24 404.595 87.6V25.2C404.595 24.496 404.819 23.92 405.267 23.472C405.779 23.024 406.355 22.8 406.995 22.8H451.827C452.531 22.8 453.107 23.024 453.555 23.472C454.003 23.92 454.227 24.496 454.227 25.2V34.224C454.227 34.864 454.003 35.44 453.555 35.952C453.107 36.4 452.531 36.624 451.827 36.624H421.203V49.584H449.715C450.419 49.584 450.995 49.84 451.443 50.352C451.891 50.8 452.115 51.376 452.115 52.08V60.432C452.115 61.072 451.891 61.648 451.443 62.16C450.995 62.608 450.419 62.832 449.715 62.832H421.203V76.176H452.595C453.299 76.176 453.875 76.4 454.323 76.848C454.771 77.296 454.995 77.872 454.995 78.576V87.6C454.995 88.24 454.771 88.816 454.323 89.328C453.875 89.776 453.299 90 452.595 90H406.995ZM468.308 90C467.668 90 467.092 89.776 466.58 89.328C466.132 88.816 465.908 88.24 465.908 87.6V25.2C465.908 24.496 466.132 23.92 466.58 23.472C467.092 23.024 467.668 22.8 468.308 22.8H480.98C481.684 22.8 482.26 23.024 482.708 23.472C483.156 23.92 483.38 24.496 483.38 25.2V75.504H512.468C513.172 75.504 513.748 75.76 514.196 76.272C514.644 76.72 514.868 77.296 514.868 78V87.6C514.868 88.24 514.644 88.816 514.196 89.328C513.748 89.776 513.172 90 512.468 90H468.308ZM525.589 90C524.949 90 524.373 89.776 523.861 89.328C523.413 88.816 523.189 88.24 523.189 87.6V25.2C523.189 24.496 523.413 23.92 523.861 23.472C524.373 23.024 524.949 22.8 525.589 22.8H552.469C560.661 22.8 567.093 24.688 571.765 28.464C576.501 32.24 578.869 37.744 578.869 44.976C578.869 52.144 576.533 57.552 571.861 61.2C567.189 64.784 560.725 66.576 552.469 66.576H541.045V87.6C541.045 88.304 540.789 88.88 540.277 89.328C539.829 89.776 539.253 90 538.549 90H525.589ZM551.989 53.328C554.805 53.328 557.013 52.624 558.613 51.216C560.213 49.744 561.013 47.6 561.013 44.784C561.013 42.16 560.245 40.08 558.709 38.544C557.237 36.944 554.997 36.144 551.989 36.144H540.757V53.328H551.989Z" fill="#F8A830"/>
</svg>
